solid left
 facet normal -0.707107 -0.707107 0
  outer loop
   vertex 5.55112e-17 -0.707107 -0.5
   vertex 5.55112e-17 -0.707107 0.5
   vertex -0.707107 -5.55112e-17 0.5
  endloop
 endfacet
 facet normal -0.707107 -0.707107 -0
  outer loop
   vertex -0.707107 -5.55112e-17 0.5
   vertex -0.707107 -5.55112e-17 -0.5
   vertex 5.55112e-17 -0.707107 -0.5
  endloop
 endfacet
endsolid left
solid right
 facet normal 0.707107 0.707107 0
  outer loop
   vertex 0.707107 5.55112e-17 0.5
   vertex 0.707107 5.55112e-17 -0.5
   vertex -5.55112e-17 0.707107 -0.5
  endloop
 endfacet
 facet normal 0.707107 0.707107 0
  outer loop
   vertex -5.55112e-17 0.707107 0.5
   vertex 0.707107 5.55112e-17 0.5
   vertex -5.55112e-17 0.707107 -0.5
  endloop
 endfacet
endsolid right
solid top
 facet normal -0.707107 0.707107 0
  outer loop
   vertex -5.55112e-17 0.707107 -0.5
   vertex -0.707107 -5.55112e-17 -0.5
   vertex -0.707107 -5.55112e-17 0.5
  endloop
 endfacet
 facet normal -0.707107 0.707107 0
  outer loop
   vertex -5.55112e-17 0.707107 0.5
   vertex -5.55112e-17 0.707107 -0.5
   vertex -0.707107 -5.55112e-17 0.5
  endloop
 endfacet
endsolid top
solid bottom
 facet normal 0.707107 -0.707107 0
  outer loop
   vertex 5.55112e-17 -0.707107 -0.5
   vertex 0.707107 5.55112e-17 -0.5
   vertex 0.707107 5.55112e-17 0.5
  endloop
 endfacet
 facet normal 0.707107 -0.707107 0
  outer loop
   vertex 0.707107 5.55112e-17 0.5
   vertex 5.55112e-17 -0.707107 0.5
   vertex 5.55112e-17 -0.707107 -0.5
  endloop
 endfacet
endsolid bottom
solid front
 facet normal -0 0 1
  outer loop
   vertex -0.707107 -5.55112e-17 0.5
   vertex 5.55112e-17 -0.707107 0.5
   vertex 0.707107 5.55112e-17 0.5
  endloop
 endfacet
 facet normal 0 0 1
  outer loop
   vertex -5.55112e-17 0.707107 0.5
   vertex -0.707107 -5.55112e-17 0.5
   vertex 0.707107 5.55112e-17 0.5
  endloop
 endfacet
endsolid front
solid back
 facet normal 0 0 -1
  outer loop
   vertex 5.55112e-17 -0.707107 -0.5
   vertex -0.707107 -5.55112e-17 -0.5
   vertex -5.55112e-17 0.707107 -0.5
  endloop
 endfacet
 facet normal 0 0 -1
  outer loop
   vertex -5.55112e-17 0.707107 -0.5
   vertex 0.707107 5.55112e-17 -0.5
   vertex 5.55112e-17 -0.707107 -0.5
  endloop
 endfacet
endsolid back
