solid solid
 facet normal -0.707107 -0.707107 -0
  outer loop
   vertex 6.93889e-18 -0.0848528 0.06
   vertex -0.0848528 -6.93889e-18 -0.06
   vertex 6.93889e-18 -0.0848528 -0.06
  endloop
 endfacet
 facet normal -0.707107 -0.707107 0
  outer loop
   vertex 6.93889e-18 -0.0848528 0.06
   vertex -0.0848528 -6.93889e-18 0.06
   vertex -0.0848528 -6.93889e-18 -0.06
  endloop
 endfacet
 facet normal 0.707107 0.707107 0
  outer loop
   vertex 0.0848528 6.93889e-18 0.06
   vertex 0.0848528 6.93889e-18 -0.06
   vertex -6.93889e-18 0.0848528 -0.06
  endloop
 endfacet
 facet normal 0.707107 0.707107 0
  outer loop
   vertex 0.0848528 6.93889e-18 0.06
   vertex -6.93889e-18 0.0848528 -0.06
   vertex -6.93889e-18 0.0848528 0.06
  endloop
 endfacet
 facet normal 0.707107 -0.707107 0
  outer loop
   vertex 0.0848528 6.93889e-18 0.06
   vertex 6.93889e-18 -0.0848528 -0.06
   vertex 0.0848528 6.93889e-18 -0.06
  endloop
 endfacet
 facet normal 0.707107 -0.707107 0
  outer loop
   vertex 0.0848528 6.93889e-18 0.06
   vertex 6.93889e-18 -0.0848528 0.06
   vertex 6.93889e-18 -0.0848528 -0.06
  endloop
 endfacet
 facet normal -0.707107 0.707107 0
  outer loop
   vertex -6.93889e-18 0.0848528 0.06
   vertex -6.93889e-18 0.0848528 -0.06
   vertex -0.0848528 -6.93889e-18 -0.06
  endloop
 endfacet
 facet normal -0.707107 0.707107 0
  outer loop
   vertex -6.93889e-18 0.0848528 0.06
   vertex -0.0848528 -6.93889e-18 -0.06
   vertex -0.0848528 -6.93889e-18 0.06
  endloop
 endfacet
 facet normal 0 -0 -1
  outer loop
   vertex -6.93889e-18 0.0848528 -0.06
   vertex 6.93889e-18 -0.0848528 -0.06
   vertex -0.0848528 -6.93889e-18 -0.06
  endloop
 endfacet
 facet normal 0 0 -1
  outer loop
   vertex -6.93889e-18 0.0848528 -0.06
   vertex 0.0848528 6.93889e-18 -0.06
   vertex 6.93889e-18 -0.0848528 -0.06
  endloop
 endfacet
 facet normal 0 0 1
  outer loop
   vertex -6.93889e-18 0.0848528 0.06
   vertex -0.0848528 -6.93889e-18 0.06
   vertex 6.93889e-18 -0.0848528 0.06
  endloop
 endfacet
 facet normal 0 0 1
  outer loop
   vertex -6.93889e-18 0.0848528 0.06
   vertex 6.93889e-18 -0.0848528 0.06
   vertex 0.0848528 6.93889e-18 0.06
  endloop
 endfacet
endsolid solid
